<?xml version="1.0" standalone="no"?><svg xmlns:xlink="http://www.w3.org/1999/xlink" xmlns="http://www.w3.org/2000/svg" viewBox="0 0 1000 533.3333333333334" preserveAspectRatio="xMaxYMax slice"><g transform="scale(1.140575990875392)"><rect x="0" y="0" width="876.75" height="467.6" fill="#ffffff"/><path d="M 487.47 78.32 A 18.7 18.7 0 0 1  506.17 97.02 L 487.47 78.32 A 18.7 18.7 0 0 0 506.17 97.02" fill="#d8dffa"/><rect x="16.366000000000003" y="133.26600000000002" width="25.717999999999996" height="25.717999999999996" fill="#ffffff"/><path d="M 29.23 133.27 A 12.86 12.86 0 0 1  42.09 146.13 L 29.23 133.27 A 12.86 12.86 0 0 0 42.09 146.13" fill="#ffffff"/><path d="M 16.37 158.99 A 12.86 12.86 0 0 1  29.23 146.13 L 16.37 158.99 A 12.86 12.86 0 0 0 29.23 146.13" fill="#ffffff"/><path d="M 250.17 158.99 A 25.72 25.72 0 0 1  275.89 133.27 L 250.17 158.99 A 25.72 25.72 0 0 0 275.89 133.27" fill="#8ea1f0"/><path d="M 600.87 133.27 A 25.72 25.72 0 0 1  626.59 158.99 L 600.87 133.27 A 25.72 25.72 0 0 0 626.59 158.99" fill="#b3c0f5"/><path d="M 717.77 158.99 A 25.72 25.72 0 0 1  743.49 133.27 L 717.77 158.99 A 25.72 25.72 0 0 0 743.49 133.27" fill="#ffffff"/><path d="M 71.31 188.21 A 32.73 32.73 0 0 1  104.03999999999999 220.94 L 71.31 188.21 A 32.73 32.73 0 0 0 104.03999999999999 220.94" fill="#879bef"/><rect x="129.75900000000001" y="188.20900000000003" width="32.732" height="32.732" fill="#ffffff"/><path d="M 129.76 204.58 A 16.37 16.37 0 0 1  146.13 188.21 L 129.76 204.58 A 16.37 16.37 0 0 0 146.13 188.21" fill="#ffffff"/><path d="M 146.13 188.21 A 16.37 16.37 0 0 1  162.5 204.58 L 146.13 188.21 A 16.37 16.37 0 0 0 162.5 204.58" fill="#2f52e4"/><path d="M 129.76 220.95000000000002 A 16.37 16.37 0 0 1  146.13 204.58 L 129.76 220.95000000000002 A 16.37 16.37 0 0 0 146.13 204.58" fill="#4161e6"/><path d="M 305.11 220.94 A 32.73 32.73 0 0 1  337.84000000000003 188.21 L 305.11 220.94 A 32.73 32.73 0 0 0 337.84000000000003 188.21" fill="#edf0fd"/><path d="M 422.01 188.21 A 32.73 32.73 0 0 1  454.74 220.94 L 422.01 188.21 A 32.73 32.73 0 0 0 454.74 220.94" fill="#ffffff"/><path d="M 538.91 188.21 A 32.73 32.73 0 0 1  571.64 220.94 L 538.91 188.21 A 32.73 32.73 0 0 0 571.64 220.94" fill="#ffffff"/><path d="M 655.81 220.94 A 32.73 32.73 0 0 1  688.54 188.21 L 655.81 220.94 A 32.73 32.73 0 0 0 688.54 188.21" fill="#1a40e1"/><path d="M 714.26 220.94 A 32.73 32.73 0 0 1  746.99 188.21 L 714.26 220.94 A 32.73 32.73 0 0 0 746.99 188.21" fill="#b0bef5"/><path d="M 9.35 243.15 A 39.75 39.75 0 0 1  49.1 282.9 L 9.35 243.15 A 39.75 39.75 0 0 0 49.1 282.9" fill="#3c5de6"/><path d="M 67.8 243.15 A 39.75 39.75 0 0 1  107.55 282.9 L 67.8 243.15 A 39.75 39.75 0 0 0 107.55 282.9" fill="#d5dcfa"/><path d="M 243.15 243.15 A 39.75 39.75 0 0 1  282.9 282.9 L 243.15 243.15 A 39.75 39.75 0 0 0 282.9 282.9" fill="#ffffff"/><rect x="301.602" y="243.15200000000002" width="39.745999999999995" height="39.745999999999995" fill="#ffffff"/><path d="M 301.6 263.03 A 19.87 19.87 0 0 1  321.47 282.9 L 301.6 263.03 A 19.87 19.87 0 0 0 321.47 282.9" fill="#ffffff"/><path d="M 418.5 243.15 A 39.75 39.75 0 0 1  458.25 282.9 L 418.5 243.15 A 39.75 39.75 0 0 0 458.25 282.9" fill="#ffffff"/><path d="M 535.4 243.15 A 39.75 39.75 0 0 1  575.15 282.9 L 535.4 243.15 A 39.75 39.75 0 0 0 575.15 282.9" fill="#ffffff"/><path d="M 593.85 282.9 A 39.75 39.75 0 0 1  633.6 243.15 L 593.85 282.9 A 39.75 39.75 0 0 0 633.6 243.15" fill="#bac6f6"/><path d="M 652.3 282.9 A 39.75 39.75 0 0 1  692.05 243.15 L 652.3 282.9 A 39.75 39.75 0 0 0 692.05 243.15" fill="#ffffff"/><path d="M 710.75 243.15 A 39.75 39.75 0 0 1  750.5 282.9 L 710.75 243.15 A 39.75 39.75 0 0 0 750.5 282.9" fill="#ffffff"/><path d="M 769.2 243.15 A 39.75 39.75 0 0 1  808.95 282.9 L 769.2 243.15 A 39.75 39.75 0 0 0 808.95 282.9" fill="#9aabf2"/><path d="M 827.65 243.15 A 39.75 39.75 0 0 1  867.4 282.9 L 827.65 243.15 A 39.75 39.75 0 0 0 867.4 282.9" fill="#ffffff"/><path d="M 5.84 298.1 A 46.76 46.76 0 0 1  52.599999999999994 344.86 L 5.84 298.1 A 46.76 46.76 0 0 0 52.599999999999994 344.86" fill="#ffffff"/><rect x="64.295" y="298.095" width="46.760000000000005" height="46.760000000000005" fill="#ffffff"/><path d="M 87.68 321.48 A 23.38 23.38 0 0 1  111.06 298.1 L 87.68 321.48 A 23.38 23.38 0 0 0 111.06 298.1" fill="#ffffff"/><path d="M 87.68 321.48 A 23.38 23.38 0 0 1  111.06 344.86 L 87.68 321.48 A 23.38 23.38 0 0 0 111.06 344.86" fill="#3355e4"/><path d="M 239.65 344.86 A 46.76 46.76 0 0 1  286.41 298.1 L 239.65 344.86 A 46.76 46.76 0 0 0 286.41 298.1" fill="#95a7f1"/><path d="M 356.55 298.1 A 46.76 46.76 0 0 1  403.31 344.86 L 356.55 298.1 A 46.76 46.76 0 0 0 403.31 344.86" fill="#d3daf9"/><path d="M 415 344.86 A 46.76 46.76 0 0 1  461.76 298.1 L 415 344.86 A 46.76 46.76 0 0 0 461.76 298.1" fill="#ffffff"/><rect x="473.44500000000005" y="298.095" width="46.760000000000005" height="46.760000000000005" fill="#ffffff"/><path d="M 473.45 298.1 A 23.38 23.38 0 0 1  496.83 321.48 L 473.45 298.1 A 23.38 23.38 0 0 0 496.83 321.48" fill="#c8d1f8"/><path d="M 496.83 298.1 A 23.38 23.38 0 0 1  520.21 321.48 L 496.83 298.1 A 23.38 23.38 0 0 0 520.21 321.48" fill="#cad3f8"/><path d="M 473.45 344.86 A 23.38 23.38 0 0 1  496.83 321.48 L 473.45 344.86 A 23.38 23.38 0 0 0 496.83 321.48" fill="#ffffff"/><path d="M 496.83 344.86 A 23.38 23.38 0 0 1  520.21 321.48 L 496.83 344.86 A 23.38 23.38 0 0 0 520.21 321.48" fill="#adbaf4"/><path d="M 531.9 298.1 A 46.76 46.76 0 0 1  578.66 344.86 L 531.9 298.1 A 46.76 46.76 0 0 0 578.66 344.86" fill="#ffffff"/><path d="M 590.35 344.86 A 46.76 46.76 0 0 1  637.11 298.1 L 590.35 344.86 A 46.76 46.76 0 0 0 637.11 298.1" fill="#dae0fa"/><path d="M 648.8 344.86 A 46.76 46.76 0 0 1  695.56 298.1 L 648.8 344.86 A 46.76 46.76 0 0 0 695.56 298.1" fill="#ffffff"/><rect x="707.2450000000001" y="298.095" width="46.760000000000005" height="46.760000000000005" fill="#ffffff"/><path d="M 707.25 321.48 A 23.38 23.38 0 0 1  730.63 298.1 L 707.25 321.48 A 23.38 23.38 0 0 0 730.63 298.1" fill="#8297ef"/><path d="M 730.63 298.1 A 23.38 23.38 0 0 1  754.01 321.48 L 730.63 298.1 A 23.38 23.38 0 0 0 754.01 321.48" fill="#d4dcf9"/><path d="M 730.63 344.86 A 23.38 23.38 0 0 1  754.01 321.48 L 730.63 344.86 A 23.38 23.38 0 0 0 754.01 321.48" fill="#ffffff"/><rect x="765.695" y="298.095" width="46.760000000000005" height="46.760000000000005" fill="#ffffff"/><path d="M 765.7 321.48 A 23.38 23.38 0 0 1  789.08 298.1 L 765.7 321.48 A 23.38 23.38 0 0 0 789.08 298.1" fill="#ffffff"/><path d="M 789.08 321.48 A 23.38 23.38 0 0 1  812.46 298.1 L 789.08 321.48 A 23.38 23.38 0 0 0 812.46 298.1" fill="#edf0fd"/><path d="M 789.08 321.48 A 23.38 23.38 0 0 1  812.46 344.86 L 789.08 321.48 A 23.38 23.38 0 0 0 812.46 344.86" fill="#bfcaf7"/><rect x="824.1450000000001" y="298.095" width="46.760000000000005" height="46.760000000000005" fill="#ffffff"/><path d="M 824.15 321.48 A 23.38 23.38 0 0 1  847.53 344.86 L 824.15 321.48 A 23.38 23.38 0 0 0 847.53 344.86" fill="#ffffff"/><path d="M 847.53 321.48 A 23.38 23.38 0 0 1  870.91 344.86 L 847.53 321.48 A 23.38 23.38 0 0 0 870.91 344.86" fill="#edf0fd"/><path d="M 2.34 406.81 A 53.77 53.77 0 0 1  56.11 353.04 L 2.34 406.81 A 53.77 53.77 0 0 0 56.11 353.04" fill="#ffffff"/><path d="M 60.79 353.04 A 53.77 53.77 0 0 1  114.56 406.81 L 60.79 353.04 A 53.77 53.77 0 0 0 114.56 406.81" fill="#7e94ee"/><path d="M 119.24 353.04 A 53.77 53.77 0 0 1  173.01 406.81 L 119.24 353.04 A 53.77 53.77 0 0 0 173.01 406.81" fill="#ffffff"/><path d="M 177.69 353.04 A 53.77 53.77 0 0 1  231.46 406.81 L 177.69 353.04 A 53.77 53.77 0 0 0 231.46 406.81" fill="#ffffff"/><path d="M 353.04 353.04 A 53.77 53.77 0 0 1  406.81 406.81 L 353.04 353.04 A 53.77 53.77 0 0 0 406.81 406.81" fill="#ffffff"/><path d="M 411.49 353.04 A 53.77 53.77 0 0 1  465.26 406.81 L 411.49 353.04 A 53.77 53.77 0 0 0 465.26 406.81" fill="#ffffff"/><rect x="469.93800000000005" y="353.03800000000007" width="53.774" height="53.774" fill="#ffffff"/><path d="M 469.94 353.04 A 26.89 26.89 0 0 1  496.83 379.93 L 469.94 353.04 A 26.89 26.89 0 0 0 496.83 379.93" fill="#ffffff"/><path d="M 496.83 379.93 A 26.89 26.89 0 0 1  523.72 353.04 L 496.83 379.93 A 26.89 26.89 0 0 0 523.72 353.04" fill="#4c6ae8"/><path d="M 469.94 379.93 A 26.89 26.89 0 0 1  496.83 406.82 L 469.94 379.93 A 26.89 26.89 0 0 0 496.83 406.82" fill="#ffffff"/><path d="M 528.39 406.81 A 53.77 53.77 0 0 1  582.16 353.04 L 528.39 406.81 A 53.77 53.77 0 0 0 582.16 353.04" fill="#ffffff"/><path d="M 586.84 353.04 A 53.77 53.77 0 0 1  640.61 406.81 L 586.84 353.04 A 53.77 53.77 0 0 0 640.61 406.81" fill="#4665e7"/><rect x="645.288" y="353.03800000000007" width="53.774" height="53.774" fill="#ffffff"/><path d="M 645.29 379.93 A 26.89 26.89 0 0 1  672.18 353.04 L 645.29 379.93 A 26.89 26.89 0 0 0 672.18 353.04" fill="#ffffff"/><path d="M 672.18 379.93 A 26.89 26.89 0 0 1  699.0699999999999 353.04 L 672.18 379.93 A 26.89 26.89 0 0 0 699.0699999999999 353.04" fill="#c1ccf7"/><path d="M 645.29 379.93 A 26.89 26.89 0 0 1  672.18 406.82 L 645.29 379.93 A 26.89 26.89 0 0 0 672.18 406.82" fill="#ffffff"/><path d="M 672.18 379.93 A 26.89 26.89 0 0 1  699.0699999999999 406.82 L 672.18 379.93 A 26.89 26.89 0 0 0 699.0699999999999 406.82" fill="#ffffff"/><path d="M 703.74 353.04 A 53.77 53.77 0 0 1  757.51 406.81 L 703.74 353.04 A 53.77 53.77 0 0 0 757.51 406.81" fill="#637deb"/><path d="M 762.19 406.81 A 53.77 53.77 0 0 1  815.96 353.04 L 762.19 406.81 A 53.77 53.77 0 0 0 815.96 353.04" fill="#c4cef7"/><path d="M 820.64 406.81 A 53.77 53.77 0 0 1  874.41 353.04 L 820.64 406.81 A 53.77 53.77 0 0 0 874.41 353.04" fill="#ffffff"/><path d="M 0 409.15 A 58.45 58.45 0 0 1  58.45 467.59999999999997 L 0 409.15 A 58.45 58.45 0 0 0 58.45 467.59999999999997" fill="#4363e7"/><path d="M 58.45 409.15 A 58.45 58.45 0 0 1  116.9 467.59999999999997 L 58.45 409.15 A 58.45 58.45 0 0 0 116.9 467.59999999999997" fill="#ffffff"/><path d="M 116.9 467.59999999999997 A 58.45 58.45 0 0 1  175.35000000000002 409.15 L 116.9 467.59999999999997 A 58.45 58.45 0 0 0 175.35000000000002 409.15" fill="#879bef"/><rect x="175.35000000000002" y="409.15000000000003" width="58.45" height="58.45" fill="#ffffff"/><path d="M 175.35 409.15 A 29.23 29.23 0 0 1  204.57999999999998 438.38 L 175.35 409.15 A 29.23 29.23 0 0 0 204.57999999999998 438.38" fill="#b4c0f5"/><path d="M 204.58 438.38 A 29.23 29.23 0 0 1  233.81 409.15 L 204.58 438.38 A 29.23 29.23 0 0 0 233.81 409.15" fill="#ffffff"/><path d="M 175.35 438.38 A 29.23 29.23 0 0 1  204.57999999999998 467.61 L 175.35 438.38 A 29.23 29.23 0 0 0 204.57999999999998 467.61" fill="#ffffff"/><path d="M 204.58 438.38 A 29.23 29.23 0 0 1  233.81 467.61 L 204.58 438.38 A 29.23 29.23 0 0 0 233.81 467.61" fill="#7e94ee"/><path d="M 233.8 467.59999999999997 A 58.45 58.45 0 0 1  292.25 409.15 L 233.8 467.59999999999997 A 58.45 58.45 0 0 0 292.25 409.15" fill="#93a5f1"/><path d="M 292.25 467.59999999999997 A 58.45 58.45 0 0 1  350.7 409.15 L 292.25 467.59999999999997 A 58.45 58.45 0 0 0 350.7 409.15" fill="#ffffff"/><rect x="350.70000000000005" y="409.15000000000003" width="58.45" height="58.45" fill="#ffffff"/><path d="M 350.7 409.15 A 29.23 29.23 0 0 1  379.93 438.38 L 350.7 409.15 A 29.23 29.23 0 0 0 379.93 438.38" fill="#7a91ee"/><path d="M 379.93 409.15 A 29.23 29.23 0 0 1  409.16 438.38 L 379.93 409.15 A 29.23 29.23 0 0 0 409.16 438.38" fill="#ffffff"/><path d="M 350.7 438.38 A 29.23 29.23 0 0 1  379.93 467.61 L 350.7 438.38 A 29.23 29.23 0 0 0 379.93 467.61" fill="#ffffff"/><path d="M 379.93 467.61 A 29.23 29.23 0 0 1  409.16 438.38 L 379.93 467.61 A 29.23 29.23 0 0 0 409.16 438.38" fill="#5975e9"/><rect x="409.15000000000003" y="409.15000000000003" width="58.45" height="58.45" fill="#ffffff"/><path d="M 409.15 409.15 A 29.23 29.23 0 0 1  438.38 438.38 L 409.15 409.15 A 29.23 29.23 0 0 0 438.38 438.38" fill="#ffffff"/><path d="M 438.38 438.38 A 29.23 29.23 0 0 1  467.61 409.15 L 438.38 438.38 A 29.23 29.23 0 0 0 467.61 409.15" fill="#ccd4f8"/><path d="M 409.15 467.61 A 29.23 29.23 0 0 1  438.38 438.38 L 409.15 467.61 A 29.23 29.23 0 0 0 438.38 438.38" fill="#acbaf4"/><path d="M 438.38 438.38 A 29.23 29.23 0 0 1  467.61 467.61 L 438.38 438.38 A 29.23 29.23 0 0 0 467.61 467.61" fill="#4061e6"/><path d="M 467.6 409.15 A 58.45 58.45 0 0 1  526.0500000000001 467.59999999999997 L 467.6 409.15 A 58.45 58.45 0 0 0 526.0500000000001 467.59999999999997" fill="#ffffff"/><path d="M 526.05 467.59999999999997 A 58.45 58.45 0 0 1  584.5 409.15 L 526.05 467.59999999999997 A 58.45 58.45 0 0 0 584.5 409.15" fill="#1b41e1"/><path d="M 584.5 409.15 A 58.45 58.45 0 0 1  642.95 467.59999999999997 L 584.5 409.15 A 58.45 58.45 0 0 0 642.95 467.59999999999997" fill="#ffffff"/><path d="M 642.95 467.59999999999997 A 58.45 58.45 0 0 1  701.4000000000001 409.15 L 642.95 467.59999999999997 A 58.45 58.45 0 0 0 701.4000000000001 409.15" fill="#5673e9"/><path d="M 701.4 467.59999999999997 A 58.45 58.45 0 0 1  759.85 409.15 L 701.4 467.59999999999997 A 58.45 58.45 0 0 0 759.85 409.15" fill="#3e5ee6"/><rect x="759.85" y="409.15000000000003" width="58.45" height="58.45" fill="#ffffff"/><path d="M 759.85 438.38 A 29.23 29.23 0 0 1  789.08 409.15 L 759.85 438.38 A 29.23 29.23 0 0 0 789.08 409.15" fill="#395be5"/><path d="M 789.08 409.15 A 29.23 29.23 0 0 1  818.3100000000001 438.38 L 789.08 409.15 A 29.23 29.23 0 0 0 818.3100000000001 438.38" fill="#d1d9f9"/><path d="M 759.85 438.38 A 29.23 29.23 0 0 1  789.08 467.61 L 759.85 438.38 A 29.23 29.23 0 0 0 789.08 467.61" fill="#ffffff"/><path d="M 789.08 467.61 A 29.23 29.23 0 0 1  818.3100000000001 438.38 L 789.08 467.61 A 29.23 29.23 0 0 0 818.3100000000001 438.38" fill="#3758e5"/><path d="M 818.3 409.15 A 58.45 58.45 0 0 1  876.75 467.59999999999997 L 818.3 409.15 A 58.45 58.45 0 0 0 876.75 467.59999999999997" fill="#738bed"/></g></svg>